<mxfile host="65bd71144e">
    <diagram id="CGwl_x7L7q7drA_-7FFX" name="Страница 1">
        <mxGraphModel dx="975" dy="375" grid="1" gridSize="10" guides="1" tooltips="1" connect="1" arrows="1" fold="1" page="1" pageScale="1" pageWidth="827" pageHeight="1169" math="0" shadow="0">
            <root>
                <mxCell id="0"/>
                <mxCell id="1" parent="0"/>
                <mxCell id="2" value="Задача 68. Напишите программу вычисления функции Аккермана. Даны два неотрицательных числа m и n." style="text;html=1;strokeColor=none;fillColor=none;align=center;verticalAlign=middle;whiteSpace=wrap;rounded=0;" vertex="1" parent="1">
                    <mxGeometry x="260" y="20" width="230" height="50" as="geometry"/>
                </mxCell>
                <mxCell id="3" value="Функция Аккермана&lt;br&gt;&lt;br&gt;n + 1&lt;span style=&quot;white-space: pre&quot;&gt;&#9;&lt;/span&gt;&lt;span style=&quot;white-space: pre&quot;&gt;&#9;&lt;span style=&quot;white-space: pre&quot;&gt;&#9;&lt;/span&gt; &lt;/span&gt;&amp;nbsp; &amp;nbsp; m = 0&lt;br&gt;A (m - 1, 1)&lt;span style=&quot;white-space: pre&quot;&gt;&#9;&lt;/span&gt;&lt;span style=&quot;white-space: pre&quot;&gt;&#9;&lt;/span&gt;&amp;nbsp; &amp;nbsp; &amp;nbsp;m &amp;gt; 0, n = 0&lt;br&gt;A (m - 1, A (m, n-1)&amp;nbsp; &amp;nbsp; &amp;nbsp; &amp;nbsp;m &amp;gt; 0, n &amp;gt; 0" style="text;html=1;strokeColor=none;fillColor=none;align=left;verticalAlign=middle;whiteSpace=wrap;rounded=0;" vertex="1" parent="1">
                    <mxGeometry x="110" y="80" width="210" height="120" as="geometry"/>
                </mxCell>
                <mxCell id="4" value="" style="shape=curlyBracket;whiteSpace=wrap;html=1;rounded=1;size=0.5;" vertex="1" parent="1">
                    <mxGeometry x="90" y="130" width="20" height="60" as="geometry"/>
                </mxCell>
                <mxCell id="6" value="A (m ,n)" style="text;html=1;strokeColor=none;fillColor=none;align=center;verticalAlign=middle;whiteSpace=wrap;rounded=0;" vertex="1" parent="1">
                    <mxGeometry x="30" y="145" width="60" height="30" as="geometry"/>
                </mxCell>
            </root>
        </mxGraphModel>
    </diagram>
</mxfile>